<svg width="26" height="21" viewBox="0 0 26 21" fill="none" xmlns="http://www.w3.org/2000/svg">
<path d="M20.178 7.73758L19.8499 8.2916C19.7298 8.49696 19.4786 8.57937 19.2571 8.49421C18.7986 8.31586 18.3803 8.06385 18.0136 7.75006C17.836 7.59911 17.7928 7.33675 17.9128 7.1353L18.241 6.58127C17.9759 6.26501 17.7701 5.89879 17.635 5.50232L16.9906 5.49324C16.7562 5.48994 16.5555 5.31912 16.5197 5.08422C16.4482 4.61442 16.4512 4.12222 16.5401 3.63515C16.5825 3.40134 16.788 3.23235 17.0224 3.23565L17.6668 3.24473C17.813 2.85222 18.029 2.49194 18.3029 2.18327L17.9905 1.62022C17.8762 1.41546 17.9229 1.15438 18.1085 1.00854C18.4839 0.705204 18.9131 0.465132 19.3726 0.299711C19.5963 0.220824 19.8451 0.310274 19.9594 0.518936L20.2718 1.08199C20.6829 1.01355 21.1009 1.01944 21.5099 1.09943L21.8381 0.545401C21.9582 0.340041 22.2094 0.257633 22.4308 0.342792C22.8893 0.521143 23.3077 0.773154 23.6744 1.08694C23.852 1.2379 23.8952 1.50025 23.7751 1.70171L23.447 2.25573C23.7121 2.572 23.9179 2.93821 24.0529 3.33469L24.6974 3.34377C24.9317 3.34707 25.1325 3.51788 25.1682 3.75278C25.2398 4.22259 25.2367 4.71478 25.1478 5.20186C25.1055 5.43566 24.8999 5.60466 24.6656 5.60135L24.0211 5.59228C23.875 5.98479 23.6589 6.34506 23.385 6.65373L23.6974 7.21678C23.8117 7.42154 23.7651 7.68263 23.5794 7.82846C23.204 8.1318 22.7748 8.37187 22.3154 8.53729C22.0916 8.61618 21.8429 8.52673 21.7286 8.31807L21.4162 7.75502C21.0089 7.82351 20.5871 7.81756 20.178 7.73758ZM19.8003 5.43515C21.2877 6.61247 23.0266 4.92195 21.8916 3.40191C20.4042 2.22068 18.6653 3.91511 19.8003 5.43515ZM15.2121 11.3828L16.5192 12.0576C16.9105 12.2897 17.0755 12.7725 16.9133 13.1999C16.5523 14.1403 15.8566 14.9977 15.2132 15.7466C14.9192 16.0901 14.4181 16.169 14.0268 15.9369L12.8994 15.2647C12.2669 15.791 11.5344 16.2065 10.7376 16.4727L10.7192 17.785C10.7128 18.2381 10.3831 18.6241 9.93672 18.696C8.97356 18.8465 7.96574 18.8401 6.97217 18.6542C6.52409 18.5698 6.19754 18.1784 6.20398 17.7214L6.22247 16.4091C5.43354 16.1167 4.71299 15.6846 4.09559 15.1407L2.94979 15.777C2.55602 15.998 2.05337 15.905 1.76923 15.5533C1.14716 14.7866 0.49147 13.9101 0.157109 12.9639C0.00687136 12.536 0.185497 12.058 0.583235 11.8331L1.89313 11.1952C1.7523 10.3767 1.76413 9.53698 1.92801 8.7189L0.636661 8.04048C0.24536 7.80839 0.0763635 7.32549 0.242501 6.90201C0.603438 5.96168 1.28356 5.10399 1.92698 4.35517C2.22091 4.01162 2.72207 3.93273 3.11337 4.16483L4.24073 4.83702C4.87321 4.31072 5.6057 3.89522 6.40249 3.62907L6.42104 2.3128C6.42736 1.86362 6.75315 1.47755 7.19952 1.4057C8.16267 1.25519 9.1744 1.26163 10.168 1.44361C10.6161 1.52806 10.9427 1.91941 10.9362 2.3764L10.9177 3.68877C11.7067 3.98116 12.4272 4.41323 13.0446 4.95714L14.1905 4.31696C14.5842 4.09592 15.0869 4.18895 15.371 4.54064C15.9931 5.30729 16.6449 6.18375 16.9792 7.13387C17.1294 7.5618 16.9703 8.04008 16.5726 8.26497L15.2471 8.90261C15.3878 9.72499 15.376 10.5647 15.2121 11.3828ZM10.6072 12.1423C12.9619 9.16733 9.57697 5.68571 6.53688 7.95561C4.18224 10.9306 7.56713 14.4122 10.6072 12.1423ZM20.0136 19.4122L19.6854 19.9662C19.5653 20.1716 19.3141 20.254 19.0927 20.1688C18.6342 19.9905 18.2158 19.7385 17.8491 19.4247C17.6715 19.2737 17.6283 19.0114 17.7484 18.8099L18.0765 18.2559C17.8114 17.9396 17.6056 17.5734 17.4706 17.1769L16.8261 17.1679C16.5918 17.1646 16.391 16.9937 16.3553 16.7588C16.2837 16.289 16.2868 15.7968 16.3757 15.3098C16.418 15.076 16.6236 14.907 16.8579 14.9103L17.5024 14.9193C17.6485 14.5268 17.8646 14.1666 18.1385 13.8579L17.8261 13.2948C17.7118 13.0901 17.7584 12.829 17.9441 12.6832C18.3195 12.3798 18.7487 12.1398 19.2081 11.9743C19.4319 11.8954 19.6806 11.9849 19.7949 12.1936L20.1073 12.7566C20.5185 12.6882 20.9364 12.6941 21.3455 12.7741L21.6736 12.22C21.7937 12.0147 22.0449 11.9323 22.2664 12.0174C22.7249 12.1958 23.1432 12.4478 23.5099 12.7616C23.6875 12.9125 23.7307 13.1749 23.6107 13.3763L23.2825 13.9304C23.5476 14.2466 23.7534 14.6128 23.8885 15.0093L24.5329 15.0184C24.7673 15.0217 24.968 15.1925 25.0038 15.4274C25.0753 15.8972 25.0723 16.3894 24.9834 16.8765C24.941 17.1103 24.7355 17.2793 24.5011 17.276L23.8567 17.2669C23.7105 17.6594 23.4945 18.0197 23.2206 18.3284L23.533 18.8914C23.6473 19.0962 23.6006 19.3572 23.415 19.5031C23.0396 19.8064 22.6104 20.0465 22.1509 20.2119C21.9272 20.2908 21.6784 20.2014 21.5641 19.9927L21.2517 19.4296C20.8445 19.4981 20.4226 19.4922 20.0136 19.4122ZM19.6359 17.1059C21.1233 18.2832 22.8622 16.5927 21.7272 15.0726C20.2397 13.8953 18.5009 15.5858 19.6359 17.1059Z" fill="white"/>
</svg>
